<svg xmlns="http://www.w3.org/2000/svg" width="1200" height="675" viewBox="0 0 1200 675">
  <defs>
    <linearGradient id="bg" x1="0" y1="0" x2="1" y2="1">
      <stop offset="0%" stop-color="#050505" />
      <stop offset="100%" stop-color="#0d0f1a" />
    </linearGradient>
    <linearGradient id="accent" x1="0" y1="0" x2="1" y2="0">
      <stop offset="0%" stop-color="#3b82f6" />
      <stop offset="100%" stop-color="#8b5cf6" />
    </linearGradient>
  </defs>
  <rect width="1200" height="675" fill="url(#bg)" />
  <text x="90" y="100" font-family="Arial, sans-serif" font-size="24" fill="#9aa0aa">Release Notes Snapshot</text>

  <rect x="90" y="140" width="360" height="40" rx="12" fill="rgba(255,255,255,0.1)" />
  <rect x="90" y="200" width="520" height="14" rx="7" fill="rgba(255,255,255,0.08)" />

  <rect x="90" y="250" width="460" height="360" rx="18" fill="rgba(255,255,255,0.05)" stroke="rgba(255,255,255,0.16)" />
  <rect x="590" y="250" width="520" height="220" rx="18" fill="rgba(255,255,255,0.05)" stroke="rgba(255,255,255,0.16)" />

  <rect x="120" y="280" width="160" height="18" rx="9" fill="url(#accent)" />
  <rect x="120" y="320" width="300" height="12" rx="6" fill="rgba(255,255,255,0.1)" />
  <rect x="120" y="344" width="260" height="12" rx="6" fill="rgba(255,255,255,0.08)" />
  <rect x="120" y="368" width="200" height="12" rx="6" fill="rgba(255,255,255,0.08)" />

  <rect x="620" y="280" width="200" height="18" rx="9" fill="url(#accent)" />
  <rect x="620" y="320" width="360" height="12" rx="6" fill="rgba(255,255,255,0.1)" />
  <rect x="620" y="344" width="320" height="12" rx="6" fill="rgba(255,255,255,0.08)" />
  <rect x="620" y="368" width="280" height="12" rx="6" fill="rgba(255,255,255,0.08)" />
</svg>
