<svg xmlns="http://www.w3.org/2000/svg" width="1200" height="675" viewBox="0 0 1200 675">
  <defs>
    <linearGradient id="bg" x1="0" y1="0" x2="1" y2="1">
      <stop offset="0%" stop-color="#050505" />
      <stop offset="60%" stop-color="#0b0d1a" />
      <stop offset="100%" stop-color="#0b0b0b" />
    </linearGradient>
    <linearGradient id="accent" x1="0" y1="0" x2="1" y2="0">
      <stop offset="0%" stop-color="#3b82f6" />
      <stop offset="100%" stop-color="#8b5cf6" />
    </linearGradient>
  </defs>
  <rect width="1200" height="675" fill="url(#bg)" />
  <circle cx="620" cy="360" r="280" fill="rgba(59,130,246,0.08)" />
  <circle cx="820" cy="280" r="220" fill="rgba(139,92,246,0.08)" />

  <rect x="90" y="140" width="320" height="32" rx="16" fill="rgba(255,255,255,0.08)" />
  <rect x="90" y="200" width="460" height="56" rx="12" fill="rgba(255,255,255,0.12)" />
  <rect x="90" y="270" width="320" height="56" rx="12" fill="url(#accent)" />
  <rect x="90" y="350" width="420" height="18" rx="9" fill="rgba(255,255,255,0.12)" />
  <rect x="90" y="375" width="380" height="18" rx="9" fill="rgba(255,255,255,0.08)" />

  <rect x="90" y="430" width="160" height="46" rx="10" fill="url(#accent)" />
  <rect x="265" y="430" width="160" height="46" rx="10" fill="rgba(255,255,255,0.08)" />

  <rect x="750" y="150" width="200" height="200" rx="18" fill="rgba(255,255,255,0.08)" stroke="rgba(255,255,255,0.2)" />
  <rect x="610" y="360" width="220" height="220" rx="18" fill="rgba(255,255,255,0.08)" stroke="rgba(255,255,255,0.2)" />
  <rect x="900" y="380" width="200" height="200" rx="18" fill="rgba(255,255,255,0.08)" stroke="rgba(255,255,255,0.2)" />

  <text x="90" y="100" font-family="Arial, sans-serif" font-size="24" fill="#9aa0aa">Atrak Hero Snapshot</text>
</svg>
