<svg xmlns="http://www.w3.org/2000/svg" width="1200" height="675" viewBox="0 0 1200 675">
  <defs>
    <linearGradient id="bg" x1="0" y1="0" x2="1" y2="1">
      <stop offset="0%" stop-color="#050505" />
      <stop offset="100%" stop-color="#0b0b12" />
    </linearGradient>
    <linearGradient id="card" x1="0" y1="0" x2="1" y2="1">
      <stop offset="0%" stop-color="rgba(59,130,246,0.18)" />
      <stop offset="100%" stop-color="rgba(139,92,246,0.12)" />
    </linearGradient>
  </defs>
  <rect width="1200" height="675" fill="url(#bg)" />
  <text x="90" y="100" font-family="Arial, sans-serif" font-size="24" fill="#9aa0aa">Projects Snapshot</text>

  <rect x="90" y="140" width="320" height="40" rx="12" fill="rgba(255,255,255,0.08)" />
  <rect x="90" y="200" width="480" height="16" rx="8" fill="rgba(255,255,255,0.08)" />

  <g fill="url(#card)">
    <rect x="90" y="250" width="320" height="260" rx="18" stroke="rgba(255,255,255,0.18)" />
    <rect x="440" y="250" width="320" height="260" rx="18" stroke="rgba(255,255,255,0.18)" />
    <rect x="790" y="250" width="320" height="260" rx="18" stroke="rgba(255,255,255,0.18)" />
  </g>

  <g fill="rgba(255,255,255,0.18)">
    <rect x="120" y="280" width="80" height="80" rx="16" />
    <rect x="470" y="280" width="80" height="80" rx="16" />
    <rect x="820" y="280" width="80" height="80" rx="16" />
  </g>

  <g fill="rgba(255,255,255,0.12)">
    <rect x="120" y="380" width="200" height="14" rx="7" />
    <rect x="120" y="404" width="180" height="14" rx="7" />
    <rect x="120" y="428" width="140" height="14" rx="7" />

    <rect x="470" y="380" width="200" height="14" rx="7" />
    <rect x="470" y="404" width="180" height="14" rx="7" />
    <rect x="470" y="428" width="140" height="14" rx="7" />

    <rect x="820" y="380" width="200" height="14" rx="7" />
    <rect x="820" y="404" width="180" height="14" rx="7" />
    <rect x="820" y="428" width="140" height="14" rx="7" />
  </g>
</svg>
